<svg width="36" height="36" viewBox="0 0 36 36" fill="none" xmlns="http://www.w3.org/2000/svg">
<rect width="36" height="36" fill="#A1A8B2"/>
<path d="M30.25 11.1328C29.406 11.4995 28.513 11.7411 27.5992 11.85C28.5595 11.2877 29.2817 10.3943 29.6303 9.3375C28.7224 9.8684 27.7307 10.2409 26.6978 10.4391C26.2629 9.98322 25.7397 9.62058 25.1603 9.37319C24.5808 9.12581 23.9571 8.99884 23.327 9C20.7761 9 18.7117 11.0344 18.7117 13.5422C18.7099 13.891 18.7499 14.2388 18.8308 14.5781C17.0016 14.4924 15.2104 14.0257 13.5719 13.2081C11.9333 12.3904 10.4835 11.2398 9.31516 9.82969C8.90527 10.5207 8.6885 11.3091 8.6875 12.1125C8.6875 13.6875 9.50922 15.0797 10.75 15.8953C10.0149 15.8779 9.29481 15.6833 8.65094 15.3281V15.3844C8.65094 17.5875 10.2447 19.4203 12.3541 19.8375C11.9574 19.9432 11.5486 19.9968 11.1381 19.9969C10.8468 19.9974 10.5562 19.9691 10.2705 19.9125C10.8569 21.7172 12.5636 23.0297 14.5853 23.0672C12.9425 24.3332 10.9256 25.0175 8.85156 25.0125C8.48341 25.0119 8.11561 24.99 7.75 24.9469C9.85993 26.2942 12.3126 27.0068 14.8159 27C23.3172 27 27.9616 20.0766 27.9616 14.0719C27.9616 13.875 27.9564 13.6781 27.947 13.4859C28.8485 12.8447 29.6283 12.0479 30.25 11.1328V11.1328Z" fill="white"/>
</svg>
