<svg width="36" height="36" viewBox="0 0 36 36" fill="none" xmlns="http://www.w3.org/2000/svg">
<rect width="36" height="36" fill="#A1A8B2"/>
<path d="M29.8425 12.9745C29.8425 10.8652 28.291 9.16828 26.3738 9.16828C23.7769 9.04687 21.1285 9 18.4219 9H17.5782C14.8782 9 12.225 9.04687 9.62817 9.16875C7.71567 9.16875 6.1641 10.875 6.1641 12.9844C6.04692 14.6527 5.99723 16.3214 6.00004 17.9902C5.99535 19.6589 6.04848 21.3292 6.15942 23.0011C6.15942 25.1105 7.71098 26.8214 9.62348 26.8214C12.3516 26.948 15.15 27.0042 17.9954 26.9995C20.8454 27.0089 23.636 26.9495 26.3672 26.8214C28.2844 26.8214 29.836 25.1105 29.836 23.0011C29.9485 21.3277 30 19.6589 29.9954 17.9855C30.006 16.3167 29.955 14.6464 29.8425 12.9745ZM15.7032 22.5886V13.3777L22.5 17.9808L15.7032 22.5886Z" fill="white"/>
</svg>
