<svg width="36" height="36" viewBox="0 0 36 36" fill="none" xmlns="http://www.w3.org/2000/svg">
<rect width="36" height="36" fill="#A1A8B2"/>
<path d="M22.3748 9.24984C23.5342 9.25331 24.6451 9.71539 25.4648 10.5352C26.2846 11.3549 26.7467 12.4658 26.7502 13.6252V22.3748C26.7467 23.5342 26.2846 24.6451 25.4648 25.4648C24.6451 26.2846 23.5342 26.7467 22.3748 26.7502H13.6252C12.4658 26.7467 11.3549 26.2846 10.5352 25.4648C9.71539 24.6451 9.25331 23.5342 9.24984 22.3748V13.6252C9.25331 12.4658 9.71539 11.3549 10.5352 10.5352C11.3549 9.71539 12.4658 9.25331 13.6252 9.24984H22.3748V9.24984ZM22.3748 7.5H13.6252C10.2562 7.5 7.5 10.2562 7.5 13.6252V22.3748C7.5 25.7437 10.2562 28.5 13.6252 28.5H22.3748C25.7437 28.5 28.5 25.7437 28.5 22.3748V13.6252C28.5 10.2562 25.7437 7.5 22.3748 7.5V7.5Z" fill="white"/>
<path d="M23.6873 13.6252C23.4278 13.6252 23.174 13.5482 22.9582 13.404C22.7423 13.2597 22.5741 13.0548 22.4748 12.8149C22.3754 12.5751 22.3494 12.3112 22.4001 12.0566C22.4507 11.802 22.5757 11.5681 22.7593 11.3846C22.9428 11.201 23.1767 11.076 23.4313 11.0254C23.6859 10.9747 23.9498 11.0007 24.1896 11.1001C24.4294 11.1994 24.6344 11.3676 24.7786 11.5835C24.9229 11.7993 24.9998 12.0531 24.9998 12.3127C25.0002 12.4851 24.9665 12.656 24.9007 12.8154C24.8349 12.9748 24.7382 13.1196 24.6163 13.2416C24.4943 13.3635 24.3495 13.4602 24.1901 13.526C24.0306 13.5918 23.8598 13.6255 23.6873 13.6252V13.6252ZM18 14.4998C18.6923 14.4998 19.369 14.7051 19.9446 15.0897C20.5202 15.4743 20.9688 16.021 21.2337 16.6605C21.4986 17.3001 21.568 18.0039 21.4329 18.6828C21.2978 19.3618 20.9645 19.9855 20.475 20.475C19.9855 20.9645 19.3618 21.2978 18.6828 21.4329C18.0039 21.568 17.3001 21.4986 16.6606 21.2337C16.021 20.9688 15.4743 20.5202 15.0897 19.9446C14.7051 19.369 14.4998 18.6923 14.4998 18C14.5008 17.072 14.8699 16.1823 15.5261 15.5261C16.1823 14.8699 17.072 14.5008 18 14.4998V14.4998ZM18 12.75C16.9617 12.75 15.9466 13.0579 15.0833 13.6348C14.2199 14.2117 13.547 15.0316 13.1496 15.9909C12.7523 16.9502 12.6483 18.0058 12.8509 19.0242C13.0535 20.0426 13.5535 20.9781 14.2877 21.7123C15.0219 22.4465 15.9574 22.9465 16.9758 23.1491C17.9942 23.3517 19.0498 23.2477 20.0091 22.8504C20.9684 22.453 21.7883 21.7801 22.3652 20.9167C22.9421 20.0534 23.25 19.0383 23.25 18C23.25 16.6076 22.6969 15.2723 21.7123 14.2877C20.7277 13.3031 19.3924 12.75 18 12.75V12.75Z" fill="white"/>
</svg>
